<svg class="Zi Zi--Community GlobalSideBar-navIcon" fill="currentColor" viewBox="0 0 24 24" width="18" height="18"><path d="M5.74 4h12.52c.961 0 1.74.775 1.74 1.73V16.27c0 .955-.779 1.73-1.74 1.73h-3.825l-1.658 2.044a1 1 0 0 1-1.554 0l-1.658-2.044H5.74C4.78 18 4 17.224 4 16.27V5.73C4 4.775 4.778 4 5.74 4zM7 8.98c0 .554.449.996 1.003.996h4.994A.992.992 0 0 0 14 8.981a.997.997 0 0 0-1.003-.995H8.003A.992.992 0 0 0 7 8.98zm0 4c0 .554.446.996.995.996h8.01a.993.993 0 0 0 .995-.995.993.993 0 0 0-.995-.995h-8.01A.993.993 0 0 0 7 12.98z" fill-rule="evenodd"></path></svg>