<svg class="Zi Zi--Later GlobalWriteAnswerLater-icon" fill="currentColor" viewBox="0 0 24 24" width="24" height="24"><path d="M5.591 10.714C6.373 7.434 9.257 5 12.696 5c4.04 0 7.314 3.358 7.314 7.5 0 4.142-3.274 7.5-7.314 7.5-2.483 0-4.755-1.28-6.1-3.363a.816.816 0 0 1 .22-1.114.772.772 0 0 1 1.086.227c1.058 1.638 2.842 2.643 4.794 2.643 3.174 0 5.747-2.638 5.747-5.893s-2.573-5.893-5.747-5.893c-2.713 0-4.988 1.93-5.59 4.523l1.145.315a.418.418 0 0 1 .102.762l-2.36 1.397a.418.418 0 0 1-.577-.154l-1.362-2.42a.418.418 0 0 1 .475-.608l1.062.292zm7.987 1.376l2.794 1.654a.784.784 0 0 1 .283 1.059l-.015.027a.781.781 0 0 1-1.08.29l-3.112-1.844a.784.784 0 0 1-.145-.092.784.784 0 0 1-.292-.757V8.784a.784.784 0 1 1 1.567 0v3.306z"></path></svg>