<svg viewBox="0 0 18 20" class="Icon Icon--report Icon--left" width="11" height="16" aria-hidden="true" style="height: 16px; width: 11px;"><title></title><g><path d="M16.947 1.13c-.633.135-3.927.638-5.697.384-3.133-.45-4.776-2.54-9.95-.888C.305 1.04.025 1.664.025 2.646L0 18.807c0 .3.1.54.304.718.195.202.438.304.73.304.275 0 .52-.102.73-.304.202-.18.304-.418.304-.718v-6.58c4.533-1.235 8.047.668 8.562.864 2.343.893 5.542.008 6.774-.657.397-.178.596-.474.596-.887V1.964c0-.6-.42-.972-1.053-.835z"></path></g></svg>