<svg class="Zi Zi--Paper GlobalWrite-navIcon" fill="currentColor" viewBox="0 0 24 24" width="24" height="24"><path d="M9.273 6.13c-1.103 0-1.439.064-1.782.243a1.348 1.348 0 0 0-.576.564c-.183.336-.248.664-.248 1.743v6.64c0 1.079.065 1.407.248 1.743.135.247.323.431.576.564.343.18.68.243 1.782.243h5.454c1.103 0 1.439-.064 1.782-.243.253-.133.44-.317.576-.564.183-.336.248-.664.248-1.743V8.68c0-1.079-.065-1.407-.248-1.743a1.348 1.348 0 0 0-.576-.564c-.343-.18-.68-.243-1.782-.243H9.273zm0-1.63h5.454c1.486 0 2.025.151 2.568.436.543.284.97.7 1.26 1.232.29.532.445 1.059.445 2.512v6.64c0 1.453-.155 1.98-.445 2.512-.29.531-.717.948-1.26 1.232-.543.285-1.082.436-2.568.436H9.273c-1.486 0-2.025-.151-2.568-.436a2.997 2.997 0 0 1-1.26-1.232C5.155 17.3 5 16.773 5 15.32V8.68c0-1.453.155-1.98.445-2.512.29-.531.717-.948 1.26-1.232.543-.285 1.082-.436 2.568-.436zM8.5 8.576v1.467h7V8.576h-7zm0 2.609v1.467h7v-1.467h-7zm0 2.608v1.468h4.667v-1.468H8.5z"></path></svg>